<?xml version="1.0" encoding="iso-8859-1"?>
<!-- Generator: Adobe Illustrator 16.0.0, SVG Export Plug-In . SVG Version: 6.00 Build 0)  -->
<!DOCTYPE svg PUBLIC "-//W3C//DTD SVG 1.1//EN" "http://www.w3.org/Graphics/SVG/1.1/DTD/svg11.dtd">
<svg version="1.1" id="Capa_1" xmlns="http://www.w3.org/2000/svg" xmlns:xlink="http://www.w3.org/1999/xlink" x="0px" y="0px"
	 width="97.75px" height="97.75px" viewBox="0 0 24 24" style="enable-background:new 0 0 97.75 97.75;" xml:space="preserve"
	>
<g>
	<g><path  d="M10.03 15.38V8.62L15.97 12L10.03 15.38ZM23.23 6.5C23.1026 6.01772 22.8508 5.57733 22.4998 5.22285C22.1488 4.86838 21.711 4.61222 21.23 4.48C19.46 4 12.35 4 12.35 4C12.35 4 5.25 4 3.48 4.48C2.99901 4.61222 2.56115 4.86838 2.21018 5.22285C1.85921 5.57733 1.60743 6.01772 1.48 6.5C1 8.28 1 12 1 12C1 12 1 15.72 1.47 17.5C1.5983 17.9835 1.85159 18.4247 2.20441 18.7793C2.55723 19.1338 2.99717 19.3893 3.48 19.52C5.25 20 12.36 20 12.36 20C12.36 20 19.46 20 21.23 19.52C21.711 19.3878 22.1488 19.1316 22.4998 18.7771C22.8508 18.4227 23.1026 17.9823 23.23 17.5C23.71 15.72 23.71 12 23.71 12C23.71 12 23.71 8.28 23.24 6.5H23.23Z"/>
</g>
</g>
<g>
</g>
<g>
</g>
<g>
</g>
<g>
</g>
<g>
</g>
<g>
</g>
<g>
</g>
<g>
</g>
<g>
</g>
<g>
</g>
<g>
</g>
<g>
</g>
<g>
</g>
<g>
</g>
<g>
</g>
</svg>
